# xmcd
#
# Track frame offsets:
#	150
#	10774
#	33207
#	44886
#	63488
#	74674
#	90587
#	102305
#	117030
#	127387
#	138201
#	152742
#	164870
#	180896
#	193448
#
# Disc length: 2823 seconds
#
# Revision: 0
# Processed by: cddbd v1.5.2PL0 Copyright (c) Steve Scherf et al.
# Submitted via: audiograbber 1.83.01
#
DISCID=dc0b050f
DTITLE=Cedar Hill - Portrait of a Song
DYEAR=2006
DGENRE=Bluegrass
TTITLE0=Another Tear
TTITLE1=Pearl
TTITLE2=McKenna's Hoedown
TTITLE3=Mary O'Grady
TTITLE4=Let It Ride
TTITLE5=Ozark Hills
TTITLE6=Gonna Have a Time
TTITLE7=I Beg to You
TTITLE8=Four Dollar Fight
TTITLE9=Black Diamond
TTITLE10=Who Am I
TTITLE11=Piney Ridge
TTITLE12=What About You
TTITLE13=Baker
TTITLE14=Hobo's Wings
EXTD=
EXTT0=
EXTT1=
EXTT2=
EXTT3=
EXTT4=
EXTT5=
EXTT6=
EXTT7=
EXTT8=
EXTT9=
EXTT10=
EXTT11=
EXTT12=
EXTT13=
EXTT14=
PLAYORDER=
